<?xml version="1.0" encoding="UTF-8"?>
<svg xmlns="http://www.w3.org/2000/svg" width="18" height="17" viewBox="0 0 18 17">
  <g fill="none" transform="translate(1 1)">
    <path stroke="#007FD3" stroke-width="1.5" d="M16,7.50162842 C16,8.27896861 14.5585635,8.8160224 14.32072,9.51563859 C14.0828765,10.2152548 14.9189056,11.5084392 14.4720718,12.1090884 C14.0252381,12.7097376 12.5261291,12.3281652 11.9063121,12.7733664 C11.286495,13.2185676 11.1855938,14.7237477 10.4648755,14.9640341 C9.74415728,15.2043205 8.79281734,14.0241315 8.00001703,14.0241315 C7.20721672,14.0241315 6.24146719,15.1972061 5.52793669,14.9710483 C4.81444025,14.7449239 4.70631719,13.2185342 4.08650016,12.7803806 C3.46668313,12.342227 1.98198375,12.7238328 1.51351858,12.1161026 C1.04505341,11.5083724 1.90271394,10.2434452 1.66487043,9.52265279 C1.42702693,8.8018604 3.78956126e-15,8.27893521 3.78956126e-15,7.50159501 C3.78956126e-15,6.72425482 1.44143653,6.18720103 1.67928003,5.48758484 C1.91712353,4.78796864 1.08109443,3.49478426 1.51351858,2.88705407 C1.94594272,2.27932387 3.4594613,2.66797727 4.07927833,2.22277607 C4.69909535,1.77757488 4.79999659,0.272394695 5.52071486,0.0321082968 C6.24143312,-0.208178101 7.20718266,0.979025086 7.99998297,0.979025086 C8.79278328,0.979025086 9.75853281,-0.194049501 10.4720633,0.0321082968 C11.1855938,0.258266095 11.2936828,1.78462248 11.9134998,2.22277607 C12.5333169,2.66089627 14.025204,2.27932387 14.4792596,2.88705407 C14.9333152,3.49478426 14.0900642,4.75971144 14.3279077,5.48050384 C14.5657853,6.20136303 16,6.72428822 16,7.50162842 Z"></path>
    <path fill="#007FD3" d="M2.72959703,6.6507062 C2.53569065,6.6507062 2.34987666,6.57462379 2.21230584,6.43632673 L0.258751773,4.48277266 C-0.0273180682,4.19670282 -0.0273180682,3.73426013 0.258751773,3.44819029 C0.544821614,3.16212045 1.0072643,3.16212045 1.29333414,3.44819029 L2.68131928,4.83544919 L5.9431103,0.934911805 C6.20213631,0.626155574 6.6623311,0.582961518 6.97402688,0.843440005 C7.28427018,1.10246601 7.3244901,1.56414787 7.06622492,1.87435659 L3.29080851,6.38877523 C3.15911678,6.54609289 2.96742371,6.6411959 2.76179372,6.64997996 C2.75155718,6.6507062 2.74055981,6.6507062 2.72959703,6.6507062 Z" transform="translate(4.456 3.827)"></path>
  </g>
</svg>
